<?xml version="1.0" encoding="UTF-8" standalone="no"?>
<!-- Created with Inkscape (http://www.inkscape.org/) -->

<svg
   width="200mm"
   height="200mm"
   viewBox="0 0 200 200"
   version="1.1"
   id="svg1"
   inkscape:version="1.4.3 (0d15f75, 2025-12-25)"
   sodipodi:docname="favicon.svg"
   xmlns:inkscape="http://www.inkscape.org/namespaces/inkscape"
   xmlns:sodipodi="http://sodipodi.sourceforge.net/DTD/sodipodi-0.dtd"
   xmlns="http://www.w3.org/2000/svg"
   xmlns:svg="http://www.w3.org/2000/svg">
  <sodipodi:namedview
     id="namedview1"
     pagecolor="#505050"
     bordercolor="#eeeeee"
     borderopacity="1"
     inkscape:showpageshadow="0"
     inkscape:pageopacity="0"
     inkscape:pagecheckerboard="0"
     inkscape:deskcolor="#505050"
     inkscape:document-units="mm"
     inkscape:zoom="1.1310937"
     inkscape:cx="378.39482"
     inkscape:cy="377.95277"
     inkscape:window-width="1920"
     inkscape:window-height="1057"
     inkscape:window-x="-8"
     inkscape:window-y="-8"
     inkscape:window-maximized="1"
     inkscape:current-layer="layer1"
     showgrid="false" />
  <defs
     id="defs1" />
  <g
     inkscape:label="Layer 1"
     inkscape:groupmode="layer"
     id="layer1">
    <rect
       style="display:inline;fill:#FF6B6B;stroke-width:9.37175"
       id="rect2-2"
       width="80"
       height="80"
       x="106.4946"
       y="107.798"
       rx="10"
       ry="10" />
    <rect
       style="display:inline;fill:#4ECDC4;stroke-width:9.37175"
       id="rect2-2-2"
       width="80"
       height="80"
       x="12.451137"
       y="105.49956"
       rx="10"
       ry="10" />
    <rect
       style="display:inline;fill:#FFE66D;stroke-width:9.37175"
       id="rect2-2-6"
       width="80"
       height="80"
       x="12.554528"
       y="9.7046757"
       rx="10"
       ry="10" />
    <rect
       style="display:inline;fill:#A78BFA;stroke-width:9.37175"
       id="rect2-2-1"
       width="80"
       height="80"
       x="107.23761"
       y="9.3103418"
       rx="10"
       ry="10" />
    <path
       style="fill:#3700ae;stroke-width:20.6002"
       d="m 434.327,335.92124 c -13.63721,-3.67267 -23.81145,-13.62339 -27.18935,-26.59203 -1.15936,-4.45105 -1.33574,-20.73559 -1.33574,-123.31878 0,-115.206157 0.0441,-118.332402 1.74611,-123.809277 3.2885,-10.581945 10.40992,-18.603799 20.86021,-23.497779 l 5.24283,-2.455273 h 122.8899 122.8899 l 5.80786,2.842212 c 7.32587,3.585091 12.8476,8.450517 16.47823,14.519668 5.84024,9.762843 5.56306,3.176384 5.56306,132.193259 0,83.19739 -0.28668,118.26509 -0.99406,121.59902 -2.09467,9.87219 -9.65857,20.14578 -18.29173,24.84453 -9.66421,5.25993 -3.91194,5.04271 -131.86004,4.97918 -97.92033,-0.0486 -117.93924,-0.26305 -121.80718,-1.30473 z"
       id="path2"
       transform="scale(0.26458333)" />
    <path
       style="fill:#ffe66d;stroke-width:20.6002;fill-opacity:1"
       d="M 80.895151,338.23795 C 67.159002,336.4809 55.512445,327.40722 50.166379,314.29755 L 48.183451,309.435 V 187.87125 66.307501 l 1.982928,-4.86255 C 54.284937,51.345394 62.459719,43.318183 72.722818,39.295702 L 78.242851,37.132201 193.6179,36.86863 c 76.91969,-0.17572 117.70613,0.04535 122.36881,0.663264 8.54624,1.132574 14.97405,3.963985 20.44284,9.004934 5.53129,5.098568 8.75724,9.954208 10.9626,16.500721 1.81128,5.376703 1.82736,6.47491 1.82736,124.833701 0,118.3588 -0.0161,119.45701 -1.82736,124.8337 -4.73443,14.05392 -16.3637,23.54383 -31.21712,25.47429 -7.01823,0.91213 -228.176575,0.96732 -235.279879,0.0587 z"
       id="path3"
       transform="scale(0.26458333)" />
    <path
       style="fill:#4ecdc4;stroke-width:20.6002;fill-opacity:1"
       d="M 75.148501,699.23981 C 64.595885,696.39931 55.934134,688.99742 50.933317,678.54676 l -2.749866,-5.74665 v -122.8899 -122.8899 l 2.749866,-5.74665 c 3.426414,-7.1605 8.456836,-12.85601 14.612014,-16.54393 9.827958,-5.88849 2.908905,-5.6146 135.227589,-5.35311 l 119.71334,0.23659 5.97521,2.8304 c 11.35239,5.37752 19.68879,15.88726 21.86927,27.57069 1.21655,6.51853 1.21457,233.31168 -0.002,239.72713 -2.25009,11.86471 -10.38587,22.28363 -21.45004,27.46958 l -6.39234,2.9962 -120.23761,0.17074 C 96.479934,700.5253 79.34503,700.36941 75.148501,699.23981 Z"
       id="path4"
       transform="scale(0.26458333)" />
    <path
       style="fill:#ff6b6b;stroke-width:20.6002;fill-opacity:1"
       d="M 431.88286,708.26348 C 420.78622,705.56144 411.67813,698.196 406.61462,687.82981 l -3.02296,-6.1887 v -122.8899 -122.8899 l 2.81584,-5.9441 c 3.91312,-8.2604 9.68612,-14.14176 17.83424,-18.16901 l 6.66456,-3.29399 120.28383,-0.2635 c 134.72615,-0.29514 126.43474,-0.66403 136.52504,6.07402 8.00146,5.34317 12.96154,12.54582 15.5906,22.63946 1.14067,4.37931 1.32194,20.97536 1.32194,121.028 0,74.19153 -0.32085,117.64457 -0.89086,120.65024 -2.73485,14.42077 -13.46789,25.80046 -27.8733,29.55259 -4.55532,1.18651 -19.79231,1.34588 -122.38167,1.28005 -88.84626,-0.057 -118.24734,-0.33545 -121.59902,-1.15159 z"
       id="path5"
       transform="scale(0.26458333)" />
    <path
       style="fill:#3700ae;stroke-width:20.6002"
       d="m 434.327,335.92124 c -13.72816,-3.69717 -23.78892,-13.5369 -27.18935,-26.59203 -1.15936,-4.45105 -1.33574,-20.73559 -1.33574,-123.31878 0,-115.215691 0.044,-118.332892 1.74704,-123.846782 3.2784,-10.61423 9.8675,-18.108603 20.35546,-23.152082 l 5.74665,-2.763465 h 122.90849 122.90849 l 5.80946,2.859988 c 7.33922,3.613083 12.81553,8.443957 16.43945,14.501892 5.84282,9.767148 5.56415,3.097336 5.55257,132.899849 -0.0114,127.49772 0.19642,121.89164 -4.86248,131.18651 -4.917,9.03412 -14.95749,16.50465 -25.00892,18.60761 -3.30146,0.69073 -39.20164,0.96302 -121.56375,0.92202 -97.66233,-0.0486 -117.63973,-0.26313 -121.50737,-1.30473 z"
       id="path6"
       transform="scale(0.26458333)" />
    <path
       style="fill:#3700ae;stroke-width:20.6002"
       d="m 434.327,335.92124 c -13.8477,-3.72936 -23.74756,-13.37326 -27.15297,-26.45096 -1.20698,-4.63512 -1.37212,-19.49443 -1.37212,-123.45985 0,-115.215691 0.044,-118.332892 1.74704,-123.846782 3.2784,-10.61423 9.8675,-18.108603 20.35546,-23.152082 l 5.74665,-2.763465 h 122.8899 122.8899 l 5.74665,2.749866 c 7.16358,3.427891 12.859,8.45959 16.53944,14.612014 5.84282,9.767148 5.56415,3.097336 5.55257,132.899849 -0.0114,127.49772 0.19642,121.89164 -4.86248,131.18651 -4.917,9.03412 -14.95749,16.50465 -25.00892,18.60761 -3.30146,0.69073 -39.20164,0.96302 -121.56375,0.92202 -97.66233,-0.0486 -117.63973,-0.26313 -121.50737,-1.30473 z"
       id="path7"
       transform="scale(0.26458333)" />
    <path
       style="fill:#a78bfa;stroke-width:20.6002;fill-opacity:1"
       d="m 434.53516,336.03666 c -9.85331,-2.44547 -18.78298,-8.99845 -23.70176,-17.3934 -5.23487,-8.93439 -5.03149,-3.57275 -5.03149,-132.64718 0,-113.295654 0.0692,-118.427157 1.66564,-123.556607 3.43543,-11.03808 9.87213,-18.463722 20.27806,-23.393619 l 5.90545,-2.797753 h 123.33195 123.33195 l 5.66776,2.957801 c 10.7516,5.610872 18.28166,15.311491 20.3741,26.246964 0.73369,3.834387 0.93724,37.752304 0.74526,124.186584 l -0.26412,118.91145 -3.20117,6.63075 c -5.34753,11.07661 -14.79676,18.67803 -26.23867,21.10766 -7.03373,1.49357 -236.79012,1.25456 -242.86296,-0.25265 z"
       id="path8"
       transform="scale(0.26458333)" />
  </g>
</svg>
